<?xml version="1.0" encoding="UTF-8"?>
<!DOCTYPE svg PUBLIC "-//W3C//DTD SVG 1.1//EN" "http://www.w3.org/Graphics/SVG/1.1/DTD/svg11.dtd">
<svg xmlns="http://www.w3.org/2000/svg" version="1.1" width="2700px" height="2700px" style="shape-rendering:geometricPrecision; text-rendering:geometricPrecision; image-rendering:optimizeQuality; fill-rule:evenodd; clip-rule:evenodd" xmlns:xlink="http://www.w3.org/1999/xlink">
<g><path style="opacity:0.995" fill="#0075bc" d="M 2045.5,1481.5 C 1678.17,1481.5 1310.83,1481.5 943.5,1481.5C 1000.88,1343.89 1084.88,1224.72 1195.5,1124C 1353.67,983.705 1534.83,900.539 1739,874.5C 1741.97,872.821 1744.64,872.488 1747,873.5C 1755.39,872.246 1764.06,870.912 1773,869.5C 1775.36,870.512 1778.03,870.179 1781,868.5C 1786.07,869.444 1792.07,869.111 1799,867.5C 1800,867.833 1801,868.167 1802,868.5C 1813.35,867.675 1824.68,866.675 1836,865.5C 1856.67,866.833 1877.33,866.833 1898,865.5C 1915.22,866.888 1931.89,868.221 1948,869.5C 1949.67,869.167 1951.33,868.833 1953,868.5C 1964.04,870.218 1975.37,871.885 1987,873.5C 1990.02,872.593 1993.35,872.926 1997,874.5C 1997.33,874.167 1997.67,873.833 1998,873.5C 2001.98,874.607 2005.98,875.607 2010,876.5C 2012.36,875.488 2015.03,875.821 2018,877.5C 2019,877.167 2020,876.833 2021,876.5C 2033.38,878.844 2045.71,881.511 2058,884.5C 2059.96,883.146 2061.96,883.479 2064,885.5C 2064.33,885.167 2064.67,884.833 2065,884.5C 2069.94,886.818 2074.94,887.818 2080,887.5C 2083.7,888.734 2087.7,890.067 2092,891.5C 2174.26,909.296 2255.09,939.296 2334.5,981.5C 2238.65,1148.56 2142.31,1315.22 2045.5,1481.5 Z"/></g>
<g><path style="opacity:0.993" fill="#010101" d="M 2797.5,1496.5 C 2558.17,1496.5 2318.83,1496.5 2079.5,1496.5C 2175.25,1330.66 2271.25,1165 2367.5,999.5C 2547.45,1104.95 2682.95,1251.62 2774,1439.5C 2782.71,1458.14 2790.55,1477.14 2797.5,1496.5 Z"/></g>
<g><path style="opacity:1" fill="#03588d" d="M 942.5,1482.5 C 942.5,1481.83 942.833,1481.5 943.5,1481.5C 1310.83,1481.5 1678.17,1481.5 2045.5,1481.5C 2045.67,1482.49 2045.34,1483.16 2044.5,1483.5C 1677.33,1482.5 1310,1482.17 942.5,1482.5 Z"/></g>
<g><path style="opacity:0.997" fill="#0a0a0a" d="M 942.5,1482.5 C 1310,1482.17 1677.33,1482.5 2044.5,1483.5C 1897.25,1740.33 1749.25,1996.66 1600.5,2252.5C 1381.1,2252.17 1161.76,2252.5 942.5,2253.5C 900.769,2151.6 876.436,2049.44 869.5,1947C 868.315,1932.88 866.981,1918.21 865.5,1903C 866.833,1879.67 866.833,1856.33 865.5,1833C 867.031,1817.13 868.365,1801.79 869.5,1787C 869.167,1785.33 868.833,1783.67 868.5,1782C 870.218,1770.96 871.885,1759.63 873.5,1748C 872.593,1744.98 872.926,1741.65 874.5,1738C 884.749,1652.65 907.416,1567.48 942.5,1482.5 Z"/></g>
<g><path style="opacity:1" fill="#ad171c" d="M 2079.5,1496.5 C 2318.83,1496.5 2558.17,1496.5 2797.5,1496.5C 2798.34,1496.84 2798.67,1497.51 2798.5,1498.5C 2558.67,1498.83 2319,1498.5 2079.5,1497.5C 2079.5,1497.17 2079.5,1496.83 2079.5,1496.5 Z"/></g>
<g><path style="opacity:0.998" fill="#e01e26" d="M 2079.5,1497.5 C 2319,1498.5 2558.67,1498.83 2798.5,1498.5C 2828.73,1572.46 2848.73,1647.63 2858.5,1724C 2859.41,1728.68 2860.41,1733.35 2861.5,1738C 2861.17,1738.33 2860.83,1738.67 2860.5,1739C 2862.18,1741.97 2862.51,1744.64 2861.5,1747C 2862.75,1755.39 2864.09,1764.06 2865.5,1773C 2864.49,1775.36 2864.82,1778.03 2866.5,1781C 2866.17,1783.33 2865.83,1785.67 2865.5,1788C 2866.69,1802.12 2868.02,1816.79 2869.5,1832C 2868.17,1855.33 2868.17,1878.67 2869.5,1902C 2867.97,1917.87 2866.64,1933.21 2865.5,1948C 2865.83,1949.67 2866.17,1951.33 2866.5,1953C 2864.78,1964.04 2863.12,1975.37 2861.5,1987C 2862.41,1990.02 2862.07,1993.35 2860.5,1997C 2850.98,2077.63 2830.31,2157.8 2798.5,2237.5C 2416.67,2236.5 2034.67,2236.17 1652.5,2236.5C 1794.6,1989.97 1936.93,1743.63 2079.5,1497.5 Z"/></g>
<g><path style="opacity:0.976" fill="#e23f26" d="M 1652.5,2237.5 C 1652.5,2237.17 1652.5,2236.83 1652.5,2236.5C 2034.67,2236.17 2416.67,2236.5 2798.5,2237.5C 2798.67,2238.49 2798.34,2239.16 2797.5,2239.5C 2797.39,2238.88 2797.06,2238.38 2796.5,2238C 2415.17,2237.5 2033.83,2237.33 1652.5,2237.5 Z"/></g>
<g><path style="opacity:0.995" fill="#f6d929" d="M 1651.5,2238.5 C 2033.43,2239.5 2415.43,2239.83 2797.5,2239.5C 2716.77,2437.42 2586.77,2594.92 2407.5,2712C 2261,2803.1 2107.5,2854.27 1947,2865.5C 1932.88,2866.69 1918.21,2868.02 1903,2869.5C 1879.67,2868.17 1856.33,2868.17 1833,2869.5C 1817.13,2867.97 1801.79,2866.64 1787,2865.5C 1785.33,2865.83 1783.67,2866.17 1782,2866.5C 1770.96,2864.78 1759.63,2863.12 1748,2861.5C 1744.98,2862.41 1741.65,2862.07 1738,2860.5C 1737.67,2860.83 1737.33,2861.17 1737,2861.5C 1733.02,2860.39 1729.02,2859.39 1725,2858.5C 1722.64,2859.51 1719.97,2859.18 1717,2857.5C 1609.42,2842.18 1503.58,2807.68 1399.5,2754C 1387.96,2747.4 1376.63,2740.57 1365.5,2733.5C 1460.59,2568.31 1555.93,2403.31 1651.5,2238.5 Z"/></g>
<g><path style="opacity:0.98" fill="#f2bb28" d="M 1651.5,2238.5 C 1651.5,2237.83 1651.83,2237.5 1652.5,2237.5C 2033.83,2237.33 2415.17,2237.5 2796.5,2238C 2797.06,2238.38 2797.39,2238.88 2797.5,2239.5C 2415.43,2239.83 2033.43,2239.5 1651.5,2238.5 Z"/></g>
<g><path style="opacity:0.976" fill="#d3d3d3" d="M 1600.5,2252.5 C 1600.67,2253.49 1600.34,2254.16 1599.5,2254.5C 1380.83,2254.5 1162.17,2254.5 943.5,2254.5C 942.833,2254.5 942.5,2254.17 942.5,2253.5C 1161.76,2252.5 1381.1,2252.17 1600.5,2252.5 Z"/></g>
<g><path style="opacity:0.992" fill="#f9f9f9" d="M 943.5,2254.5 C 1162.17,2254.5 1380.83,2254.5 1599.5,2254.5C 1512.59,2405.93 1425.42,2557.26 1338,2708.5C 1336.78,2710.97 1335.12,2712.97 1333,2714.5C 1180.75,2617.58 1062.41,2489.24 978,2329.5C 965.443,2305.05 953.943,2280.05 943.5,2254.5 Z"/></g>
</svg>
