<svg width="0" height="0" class="hidden">
  <symbol xmlns="http://www.w3.org/2000/svg" fill="#currentColor" viewBox="0 -960 960 960" id="checklist">
    <path d="m221-313 142-142q12-12 28-11.5t28 12.5q11 12 11 28t-11 28L250-228q-12 12-28 12t-28-12l-86-86q-11-11-11-28t11-28q11-11 28-11t28 11l57 57Zm0-320 142-142q12-12 28-11.5t28 12.5q11 12 11 28t-11 28L250-548q-12 12-28 12t-28-12l-86-86q-11-11-11-28t11-28q11-11 28-11t28 11l57 57Zm339 353q-17 0-28.5-11.5T520-320q0-17 11.5-28.5T560-360h280q17 0 28.5 11.5T880-320q0 17-11.5 28.5T840-280H560Zm0-320q-17 0-28.5-11.5T520-640q0-17 11.5-28.5T560-680h280q17 0 28.5 11.5T880-640q0 17-11.5 28.5T840-600H560Z"></path>
  </symbol>
  <symbol xmlns="http://www.w3.org/2000/svg" fill="#currentColor" viewBox="0 -960 960 960" id="create_new_folder">
    <path d="M160-160q-33 0-56.5-23.5T80-240v-480q0-33 23.5-56.5T160-800h207q16 0 30.5 6t25.5 17l57 57h320q33 0 56.5 23.5T880-640v400q0 33-23.5 56.5T800-160H160Zm0-80h640v-400H447l-80-80H160v480Zm0 0v-480 480Zm400-160v40q0 17 11.5 28.5T600-320q17 0 28.5-11.5T640-360v-40h40q17 0 28.5-11.5T720-440q0-17-11.5-28.5T680-480h-40v-40q0-17-11.5-28.5T600-560q-17 0-28.5 11.5T560-520v40h-40q-17 0-28.5 11.5T480-440q0 17 11.5 28.5T520-400h40Z"></path>
  </symbol>
  <symbol xmlns="http://www.w3.org/2000/svg" fill="#currentColor" viewBox="0 -960 960 960" id="dashboard">
    <path d="M520-640v-160q0-17 11.5-28.5T560-840h240q17 0 28.5 11.5T840-800v160q0 17-11.5 28.5T800-600H560q-17 0-28.5-11.5T520-640ZM120-480v-320q0-17 11.5-28.5T160-840h240q17 0 28.5 11.5T440-800v320q0 17-11.5 28.5T400-440H160q-17 0-28.5-11.5T120-480Zm400 320v-320q0-17 11.5-28.5T560-520h240q17 0 28.5 11.5T840-480v320q0 17-11.5 28.5T800-120H560q-17 0-28.5-11.5T520-160Zm-400 0v-160q0-17 11.5-28.5T160-360h240q17 0 28.5 11.5T440-320v160q0 17-11.5 28.5T400-120H160q-17 0-28.5-11.5T120-160Zm80-360h160v-240H200v240Zm400 320h160v-240H600v240Zm0-480h160v-80H600v80ZM200-200h160v-80H200v80Zm160-320Zm240-160Zm0 240ZM360-280Z"></path>
  </symbol>
  <symbol xmlns="http://www.w3.org/2000/svg" fill="#currentColor" viewBox="0 -960 960 960" id="double_arrow_left">
    <path d="m313-480 155 156q11 11 11.5 27.5T468-268q-11 11-28 11t-28-11L228-452q-6-6-8.5-13t-2.5-15q0-8 2.5-15t8.5-13l184-184q11-11 27.5-11.5T468-692q11 11 11 28t-11 28L313-480Zm264 0 155 156q11 11 11.5 27.5T732-268q-11 11-28 11t-28-11L492-452q-6-6-8.5-13t-2.5-15q0-8 2.5-15t8.5-13l184-184q11-11 27.5-11.5T732-692q11 11 11 28t-11 28L577-480Z"></path>
  </symbol>
  <symbol xmlns="http://www.w3.org/2000/svg" fill="currentColor" viewBox="0 -960 960 960" id="home">
    <path d="M240-200h120v-200q0-17 11.5-28.5T400-440h160q17 0 28.5 11.5T600-400v200h120v-360L480-740 240-560v360Zm-80 0v-360q0-19 8.5-36t23.5-28l240-180q21-16 48-16t48 16l240 180q15 11 23.5 28t8.5 36v360q0 33-23.5 56.5T720-120H560q-17 0-28.5-11.5T520-160v-200h-80v200q0 17-11.5 28.5T400-120H240q-33 0-56.5-23.5T160-200Zm320-270Z"></path>
  </symbol>
  <symbol xmlns="http://www.w3.org/2000/svg" fill="#currentColor" viewBox="0 -960 960 960" id="keyboard_arrow_down">
    <path d="M480-361q-8 0-15-2.5t-13-8.5L268-556q-11-11-11-28t11-28q11-11 28-11t28 11l156 156 156-156q11-11 28-11t28 11q11 11 11 28t-11 28L508-372q-6 6-13 8.5t-15 2.5Z"></path>
  </symbol>
  <symbol xmlns="http://www.w3.org/2000/svg" fill="#currentColor" viewBox="0 -960 960 960" id="pen">
    <path d="M167-120q-21 5-36.5-10.5T120-167l40-191 198 198-191 40Zm191-40L160-358l458-458q23-23 57-23t57 23l84 84q23 23 23 57t-23 57L358-160Zm317-600L261-346l85 85 414-414-85-85Z"></path>
  </symbol>
  <symbol xmlns="http://www.w3.org/2000/svg" fill="#currentColor" viewBox="0 -960 960 960" id="person">
    <path d="M480-480q-66 0-113-47t-47-113q0-66 47-113t113-47q66 0 113 47t47 113q0 66-47 113t-113 47ZM160-240v-32q0-34 17.5-62.5T224-378q62-31 126-46.5T480-440q66 0 130 15.5T736-378q29 15 46.5 43.5T800-272v32q0 33-23.5 56.5T720-160H240q-33 0-56.5-23.5T160-240Zm80 0h480v-32q0-11-5.5-20T700-306q-54-27-109-40.5T480-360q-56 0-111 13.5T260-306q-9 5-14.5 14t-5.5 20v32Zm240-320q33 0 56.5-23.5T560-640q0-33-23.5-56.5T480-720q-33 0-56.5 23.5T400-640q0 33 23.5 56.5T480-560Zm0-80Zm0 400Z"></path>
  </symbol>
  <symbol xmlns="http://www.w3.org/2000/svg" fill="#currentColor" viewBox="0 -960 960 960" id="stadia_controller">
    <path d="M189-160q-60 0-102.5-43T42-307q0-9 1-18t3-18l84-336q14-54 57-87.5t98-33.5h390q55 0 98 33.5t57 87.5l84 336q2 9 3.5 18.5T919-306q0 61-43.5 103.5T771-160q-42 0-78-22t-54-60l-28-58q-5-10-15-15t-21-5H385q-11 0-21 5t-15 15l-28 58q-18 38-54 60t-78 22Zm3-80q19 0 34.5-10t23.5-27l28-57q15-31 44-48.5t63-17.5h190q34 0 63 18t45 48l28 57q8 17 23.5 27t34.5 10q28 0 48-18.5t21-46.5q0 1-2-19l-84-335q-7-27-28-44t-49-17H285q-28 0-49.5 17T208-659l-84 335q-2 6-2 18 0 28 20.5 47t49.5 19Zm348-280q17 0 28.5-11.5T580-560q0-17-11.5-28.5T540-600q-17 0-28.5 11.5T500-560q0 17 11.5 28.5T540-520Zm80-80q17 0 28.5-11.5T660-640q0-17-11.5-28.5T620-680q-17 0-28.5 11.5T580-640q0 17 11.5 28.5T620-600Zm0 160q17 0 28.5-11.5T660-480q0-17-11.5-28.5T620-520q-17 0-28.5 11.5T580-480q0 17 11.5 28.5T620-440Zm80-80q17 0 28.5-11.5T740-560q0-17-11.5-28.5T700-600q-17 0-28.5 11.5T660-560q0 17 11.5 28.5T700-520Zm-360 60q13 0 21.5-8.5T370-490v-40h40q13 0 21.5-8.5T440-560q0-13-8.5-21.5T410-590h-40v-40q0-13-8.5-21.5T340-660q-13 0-21.5 8.5T310-630v40h-40q-13 0-21.5 8.5T240-560q0 13 8.5 21.5T270-530h40v40q0 13 8.5 21.5T340-460Zm140-20Z"></path>
  </symbol>
  <symbol xmlns="http://www.w3.org/2000/svg" fill="#currentColor" viewBox="0 -960 960 960" id="calendar_month">
    <path d="M200-80q-33 0-56.5-23.5T120-160v-560q0-33 23.5-56.5T200-800h40v-40q0-17 11.5-28.5T280-880q17 0 28.5 11.5T320-840v40h320v-40q0-17 11.5-28.5T680-880q17 0 28.5 11.5T720-840v40h40q33 0 56.5 23.5T840-720v560q0 33-23.5 56.5T760-80H200Zm0-80h560v-400H200v400Zm0-480h560v-80H200v80Zm0 0v-80 80Zm280 240q-17 0-28.5-11.5T440-440q0-17 11.5-28.5T480-480q17 0 28.5 11.5T520-440q0 17-11.5 28.5T480-400Zm-160 0q-17 0-28.5-11.5T280-440q0-17 11.5-28.5T320-480q17 0 28.5 11.5T360-440q0 17-11.5 28.5T320-400Zm320 0q-17 0-28.5-11.5T600-440q0-17 11.5-28.5T640-480q17 0 28.5 11.5T680-440q0 17-11.5 28.5T640-400ZM480-240q-17 0-28.5-11.5T440-280q0-17 11.5-28.5T480-320q17 0 28.5 11.5T520-280q0 17-11.5 28.5T480-240Zm-160 0q-17 0-28.5-11.5T280-280q0-17 11.5-28.5T320-320q17 0 28.5 11.5T360-280q0 17-11.5 28.5T320-240Zm320 0q-17 0-28.5-11.5T600-280q0-17 11.5-28.5T640-320q17 0 28.5 11.5T680-280q0 17-11.5 28.5T640-240Z"></path>
  </symbol>
  <symbol xmlns="http://www.w3.org/2000/svg" fill="#currentColor" viewBox="0 -960 960 960" id="book_2">
    <path d="M300-80q-58 0-99-41t-41-99v-520q0-58 41-99t99-41h500v600q-25 0-42.5 17.5T740-220q0 25 17.5 42.5T800-160v80H300Zm-60-267q14-7 29-10t31-3h20v-440h-20q-25 0-42.5 17.5T240-740v393Zm160-13h320v-440H400v440Zm-160 13v-453 453Zm60 187h373q-6-14-9.5-28.5T660-220q0-16 3-31t10-29H300q-26 0-43 17.5T240-220q0 26 17 43t43 17Z"></path>
  </symbol>
  <symbol xmlns="http://www.w3.org/2000/svg" fill="#currentColor" viewBox="0 -960 960 960" id="check_box">
    <path d="m424-312 282-282-56-56-226 226-114-114-56 56 170 170ZM200-120q-33 0-56.5-23.5T120-200v-560q0-33 23.5-56.5T200-840h560q33 0 56.5 23.5T840-760v560q0 33-23.5 56.5T760-120H200Zm0-80h560v-560H200v560Zm0-560v560-560Z"></path>
  </symbol>
  <symbol xmlns="http://www.w3.org/2000/svg" fill="#currentColor" viewBox="0 -960 960 960" id="games">
    <path d="M182-200q-51 0-79-35.5T82-322l42-300q9-60 53.5-99T282-760h396q60 0 104.5 39t53.5 99l42 300q7 51-21 86.5T778-200q-21 0-39-7.5T706-230l-90-90H344l-90 90q-15 15-33 22.5t-39 7.5Zm16-86 114-114h336l114 114q2 2 16 6 11 0 17.5-6.5T800-304l-44-308q-4-29-26-48.5T678-680H282q-30 0-52 19.5T204-612l-44 308q-2 11 4.5 17.5T182-280q2 0 16-6Zm482-154q17 0 28.5-11.5T720-480q0-17-11.5-28.5T680-520q-17 0-28.5 11.5T640-480q0 17 11.5 28.5T680-440Zm-80-120q17 0 28.5-11.5T640-600q0-17-11.5-28.5T600-640q-17 0-28.5 11.5T560-600q0 17 11.5 28.5T600-560ZM310-440h60v-70h70v-60h-70v-70h-60v70h-70v60h70v70Zm170-40Z"></path>
  </symbol>
</svg>
